HIERARCHY
ROOT root
{
	OFFSET 0.000000 0.000000 0.000000
	CHANNELS 6 Xposition Yposition Zposition Zrotation Yrotation Xrotation
	JOINT lhip
	{
		OFFSET 0.058581 -0.082280 -0.017664
		CHANNELS 3 Zrotation Yrotation Xrotation
		JOINT lknee
		{
			OFFSET 0.043451 -0.386469 0.008037
			CHANNELS 3 Zrotation Yrotation Xrotation
			JOINT lankle
			{
				OFFSET -0.014790 -0.426874 -0.037428
				CHANNELS 3 Zrotation Yrotation Xrotation
				JOINT ltoe
				{
					OFFSET 0.041054 -0.060286 0.122042
					CHANNELS 3 Zrotation Yrotation Xrotation
					End Site
					{
						OFFSET 0.000000 0.000000 0.000000
					}
				}
			}
		}
	}
	JOINT rhip
	{
		OFFSET -0.060310 -0.090513 -0.013543
		CHANNELS 3 Zrotation Yrotation Xrotation
		JOINT rknee
		{
			OFFSET -0.043257 -0.383688 -0.004843
			CHANNELS 3 Zrotation Yrotation Xrotation
			JOINT rankle
			{
				OFFSET 0.019056 -0.420046 -0.034562
				CHANNELS 3 Zrotation Yrotation Xrotation
				JOINT rtoe
				{
					OFFSET -0.034840 -0.062106 0.130323
					CHANNELS 3 Zrotation Yrotation Xrotation
					End Site
					{
						OFFSET 0.000000 0.000000 0.000000
					}
				}
			}
		}
	}
	JOINT lowerback
	{
		OFFSET 0.004439 0.124404 -0.038385
		CHANNELS 3 Zrotation Yrotation Xrotation
		JOINT upperback
		{
			OFFSET 0.004488 0.137956 0.026820
			CHANNELS 3 Zrotation Yrotation Xrotation
			JOINT chest
			{
				OFFSET -0.002265 0.056032 0.002855
				CHANNELS 3 Zrotation Yrotation Xrotation
				JOINT lowerneck
				{
					OFFSET -0.013390 0.211636 -0.033468
					CHANNELS 3 Zrotation Yrotation Xrotation
					JOINT upperneck
					{
						OFFSET 0.010113 0.088937 0.050410
						CHANNELS 3 Zrotation Yrotation Xrotation
						End Site
						{
							OFFSET 0.000000 0.000000 0.000000
						}
					}
				}
				JOINT lclavicle
				{
					OFFSET 0.071702 0.114000 -0.018898
					CHANNELS 3 Zrotation Yrotation Xrotation
					JOINT lshoulder
					{
						OFFSET 0.122921 0.045205 -0.019046
						CHANNELS 3 Zrotation Yrotation Xrotation
						JOINT lelbow
						{
							OFFSET 0.255332 -0.015649 -0.022946
							CHANNELS 3 Zrotation Yrotation Xrotation
							JOINT lwrist
							{
								OFFSET 0.265709 0.012698 -0.007375
								CHANNELS 3 Zrotation Yrotation Xrotation
								End Site
								{
									OFFSET 0.000000 0.000000 0.000000
								}
							}
						}
					}
				}
				JOINT rclavicle
				{
					OFFSET -0.082954 0.112472 -0.023707
					CHANNELS 3 Zrotation Yrotation Xrotation
					JOINT rshoulder
					{
						OFFSET -0.113228 0.046853 -0.008472
						CHANNELS 3 Zrotation Yrotation Xrotation
						JOINT relbow
						{
							OFFSET -0.260127 -0.014369 -0.031269
							CHANNELS 3 Zrotation Yrotation Xrotation
							JOINT rwrist
							{
								OFFSET -0.269108 0.006794 -0.006027
								CHANNELS 3 Zrotation Yrotation Xrotation
								End Site
								{
									OFFSET 0.000000 0.000000 0.000000
								}
							}
						}
					}
				}
			}
		}
	}
}
MOTION
Frames: 10
Frame Time: 0.033333
1.160340 0.165494 0.987760 -88.254373 1.986527 86.766824 -0.969173 -0.738201 6.132411 -2.891202 -18.019479 2.150507 5.985330 8.210442 -17.341443 0.000000 -0.000000 0.000000 3.718054 -2.630297 0.875504 3.922500 2.238486 9.391582 2.432516 -5.293304 -13.224086 0.000000 -0.000000 0.000000 -2.282648 1.670903 6.629800 1.966863 -2.529696 1.814230 1.921542 -2.064071 5.349749 4.961943 1.407510 1.158787 2.318810 -2.663735 6.139617 -23.763322 7.029918 3.217083 -61.370534 -3.119069 6.648935 10.398312 -19.470545 4.292849 -1.892079 -0.782079 -8.633277 22.074446 -5.068068 2.182088 62.279410 -1.922056 10.609015 -14.568700 25.876902 -3.259973 6.619316 0.511042 -11.502519 
1.160117 0.165283 0.987091 -88.398724 2.189285 86.873035 -0.710523 -0.799765 6.020023 -3.045956 -17.907874 2.219070 6.176499 8.229408 -17.402573 0.000000 -0.000000 0.000000 3.880274 -2.444041 0.836102 3.972175 2.195030 9.325228 2.381421 -5.345227 -13.210492 0.000000 -0.000000 0.000000 -2.134581 1.696887 6.279644 2.037592 -2.367602 1.986562 1.979291 -2.017861 5.348613 4.868960 1.394184 1.836018 2.223263 -2.436526 6.356694 -23.790966 7.056092 3.570441 -61.528811 -3.144204 6.577725 10.551729 -19.918858 4.180539 -2.124815 -0.876053 -8.901495 22.093807 -5.175383 2.568441 62.168988 -1.818378 10.453215 -14.880058 25.786675 -3.206206 6.842795 0.700763 -11.314014 
1.160312 0.165073 0.986535 -88.661348 2.270900 87.019048 -0.629431 -0.997527 5.811536 -3.175032 -17.533877 2.333566 6.205702 8.324182 -17.361370 0.000000 -0.000000 0.000000 3.930984 -2.335596 0.560195 3.961029 2.205018 9.503991 2.291898 -5.447945 -13.146361 0.000000 -0.000000 0.000000 -2.055786 1.744656 6.188124 2.076560 -2.240404 1.918260 1.968410 -1.947618 5.273620 4.896106 1.329120 2.166090 2.221071 -2.333768 6.489802 -23.691825 7.187365 3.692469 -61.822925 -3.237099 6.696114 10.584167 -20.357544 4.320745 -2.116076 -1.203140 -9.130850 22.031571 -5.347191 2.799616 62.241989 -1.769533 10.326587 -15.113693 25.900117 -3.509310 6.867637 0.849014 -11.619771 
1.160217 0.164112 0.986564 -88.589558 2.302060 87.011800 -0.683907 -0.942691 5.803534 -3.132567 -17.556630 2.370183 6.160056 8.257560 -17.384531 0.000000 -0.000000 0.000000 3.847676 -2.347060 0.658022 3.983680 2.171166 9.413461 2.429963 -5.473668 -13.124652 0.000000 -0.000000 0.000000 -1.933324 1.613794 6.229372 2.032004 -2.325081 1.878856 1.870717 -2.087410 5.425631 4.981849 1.488932 1.982870 2.295030 -2.232731 6.643133 -23.701308 7.362230 3.554015 -62.065475 -3.482306 6.864437 10.522181 -21.175625 4.542898 -1.889944 -1.400337 -9.248256 22.012831 -5.624094 2.155511 62.243398 -1.892354 10.502327 -14.952946 26.020606 -3.214685 6.465480 0.920574 -11.398910 
1.160151 0.163788 0.986512 -88.623144 2.333022 86.993705 -0.660007 -0.952994 5.868476 -3.138227 -17.574704 2.295078 6.179849 8.244904 -17.347957 0.000000 -0.000000 0.000000 3.854313 -2.285092 0.654611 3.967306 2.142050 9.462405 2.460421 -5.494073 -13.138511 0.000000 -0.000000 0.000000 -1.919457 1.482813 6.245906 2.022695 -2.387989 1.854772 1.817533 -2.164304 5.555071 4.951120 1.352864 1.946371 2.318904 -2.285971 6.766820 -23.748830 7.504083 3.408950 -62.202801 -3.716978 6.932571 10.500052 -21.819791 4.501029 -1.655737 -1.184471 -9.290815 21.947327 -6.050792 1.780086 62.316695 -1.707291 10.634495 -14.687549 26.192078 -2.722750 6.537054 0.871863 -11.082405 
1.160253 0.163373 0.986454 -88.756791 2.328131 87.094122 -0.744735 -1.050977 5.796557 -3.066899 -17.439558 2.254786 6.206610 8.314658 -17.284732 0.000000 -0.000000 0.000000 3.965944 -2.116570 0.298785 3.672436 1.954868 9.965533 2.444460 -5.394082 -13.239536 0.000000 -0.000000 0.000000 -2.089837 1.449504 6.191921 2.074345 -2.426337 1.866601 1.917553 -2.039682 5.547491 5.077003 1.417913 1.808587 2.411406 -2.412262 6.794482 -23.764436 7.266030 3.345418 -62.491757 -4.054169 7.286947 10.600922 -22.693910 4.414051 -1.650645 -1.413533 -9.483282 21.990591 -5.535040 2.069307 62.435480 -1.898269 10.681815 -15.404950 26.523007 -3.492809 6.581271 1.134496 -11.596453 
1.160069 0.162999 0.986406 -88.797324 2.404615 87.169288 -0.682645 -1.070344 5.736282 -3.078338 -17.350335 2.264380 6.235687 8.282611 -17.313715 0.000000 -0.000000 0.000000 4.013074 -1.929700 0.493768 3.694979 2.066581 9.505455 2.512637 -5.538835 -12.936966 0.000000 -0.000000 0.000000 -1.944662 1.300430 6.278023 2.030677 -2.426401 1.568799 1.780647 -2.239504 5.759108 5.140882 1.200266 1.525374 2.528659 -2.470958 6.768806 -23.858132 7.359138 3.029051 -62.532501 -4.392391 7.486725 10.409547 -23.782750 4.781546 -1.584389 -1.621480 -9.536881 21.887951 -6.145330 1.540992 62.497007 -1.703059 11.014974 -14.801635 26.979728 -2.439079 6.535952 1.141246 -10.961177 
1.159974 0.162526 0.986381 -88.866304 2.441734 87.176672 -0.685992 -1.029576 5.717281 -3.063418 -17.306754 2.289760 6.255991 8.259266 -17.234231 0.000000 -0.000000 0.000000 3.991728 -1.972099 0.529059 3.714074 2.034857 9.438945 2.520460 -5.470062 -12.969429 0.000000 -0.000000 0.000000 -2.026738 1.304643 6.313799 2.082596 -2.471205 1.614139 1.800414 -2.254027 5.645203 5.157962 0.855102 1.752968 2.412289 -2.666923 7.105577 -24.009457 7.128073 3.034486 -62.618329 -4.867139 7.720026 10.394470 -25.129928 4.705560 -1.290182 -1.606448 -9.502251 21.841454 -5.919555 1.661046 62.620247 -1.741415 11.058321 -14.902776 27.390546 -2.512652 6.425258 1.156782 -10.783971 
1.159709 0.161869 0.986553 -89.090838 2.464492 87.156585 -0.708554 -1.029187 5.782388 -3.054695 -17.132232 2.246298 6.271472 8.227359 -17.288776 0.000000 -0.000000 0.000000 3.946851 -2.172628 0.584308 3.703223 2.129031 9.410101 2.554070 -5.090472 -12.888292 0.000000 -0.000000 0.000000 -2.117590 1.416350 6.104813 2.125111 -2.573605 2.039406 1.818801 -2.185460 5.566006 5.279749 0.878607 1.465303 2.676680 -2.840533 7.156359 -23.992138 6.912809 2.828484 -62.931464 -5.355027 8.035019 10.521343 -26.606895 4.750346 -1.117283 -1.795923 -9.547352 21.772456 -5.914588 1.487824 62.747018 -1.672162 11.026459 -14.980572 27.854930 -2.598693 6.497176 1.298585 -10.879037 
1.159778 0.160515 0.986892 -89.088869 2.644698 86.795902 -0.618492 -1.083145 6.078409 -3.044503 -16.999657 2.404165 6.285898 8.147268 -17.336819 0.000000 -0.000000 0.000000 3.977057 -2.051756 1.108114 3.770029 1.772394 9.246592 2.522299 -4.966787 -12.875171 0.000000 -0.000000 0.000000 -1.973352 1.233679 5.952847 2.096337 -2.737514 2.883911 1.790376 -2.033073 5.607894 4.842326 1.506177 1.799641 2.662300 -2.283575 7.221933 -23.729295 6.315543 3.015337 -63.347422 -5.995468 8.434610 10.869517 -29.174263 4.932142 -1.069590 -2.157468 -10.028165 21.571746 -5.446148 1.755210 63.052388 -1.338721 10.848669 -15.250853 28.571714 -2.649798 6.605561 1.385508 -11.038104 
